PathFileType	4	(X/Y/Z)	52_1_15_p1_0-453_filt_butterworth.trc
DataRate	CameraRate	NumFrames	NumMarkers	Units	OrigDataRate	OrigDataStartFrame	OrigNumFrames
60.0	60.0	5	27	m	60.0	339	453
Frame#	Time	RHip			RKnee			RAnkle			RBigToe			RSmallToe			RHeel			LHip			LKnee			LAnkle			LBigToe			LSmallToe			LHeel			Neck			Head			Nose			RShoulder			RElbow			RWrist			RThumb			RIndex			RPinky			LShoulder			LElbow			LWrist			LThumb			LIndex			LPinky			
		X1	Y1	Z1	X2	Y2	Z2	X3	Y3	Z3	X4	Y4	Z4	X5	Y5	Z5	X6	Y6	Z6	X7	Y7	Z7	X8	Y8	Z8	X9	Y9	Z9	X10	Y10	Z10	X11	Y11	Z11	X12	Y12	Z12	X13	Y13	Z13	X14	Y14	Z14	X15	Y15	Z15	X16	Y16	Z16	X17	Y17	Z17	X18	Y18	Z18	X19	Y19	Z19	X20	Y20	Z20	X21	Y21	Z21	X22	Y22	Z22	X23	Y23	Z23	X24	Y24	Z24	X25	Y25	Z25	X26	Y26	Z26	X27	Y27	Z27	
339	5.65	0.19223072899940696	0.5043599269875908	0.45796845283222387	0.11269078702362952	0.609235408932277	0.8837122640813054	0.03507807053864514	0.7257563173249194	1.2530968572451409	0.005471987267044987	0.6007066065600056	1.30367240341321	0.06777319790485187	0.6029673441979392	1.3148741849645267	7.204515197933486e-05	0.858377944498711	1.318140782737916	0.008265605847605668	0.5054678497941579	0.43872003576612284	-0.08799640246778904	0.6658416121294275	0.8690415357952374	-0.15548867549946105	0.7543206466319278	1.2362686590304413	-0.14329114929950862	0.5839633488612888	1.2631290752840667	-0.20100215460928655	0.6390182516710303	1.2612778612643145	-0.14708111736519358	0.8063691275214332	1.2830267287020283	0.18265232475606524	0.4294581629171035	-0.020296563647521602	0.26555328711263937	0.2614083789648456	-0.24508614507319768	0.25106187043247097	0.2945202435266604	-0.08286935704148783	0.3235597438612993	0.4788089405384164	0.028994111255147274	0.3588520897633331	0.40617661454450066	0.2686177801268287	0.38374077765139647	0.2865412543502075	0.12003214531076449	0.3789303187048876	0.19945777018826943	0.03125316736934645	0.39525027673638263	0.14720897390169904	0.03414824251995677	0.41488807351775736	0.2022617145576208	0.09125767816826968	0.04695320165986683	0.38328900954366696	0.02061277316182557	-0.04010234494391843	0.42978327148375606	0.27786370054401743	0.0035801396112609294	0.36780075015827435	0.512595598655972	0.06785542899375037	0.35845551948007937	0.6028522134943667	0.04884883641273237	0.3321285429425886	0.651111808908758	-0.019216865233323166	0.38528151001354044	0.6478851747175464
340	5.666666666666667	0.1928275304943386	0.5045895556951137	0.4570844896496071	0.11389188270589645	0.6023804341295553	0.8812260222815318	0.035113455116906445	0.7257062110074529	1.253121415923398	0.005522784504499917	0.6007484977670824	1.303574544291312	0.06782871716809075	0.6030473709386759	1.3146650280364527	0.00018662321671822455	0.8583174277915531	1.3181898354005623	0.007402656964493548	0.5112870614749342	0.4381700132988847	-0.08639636729514882	0.6654742134692163	0.8657899931622853	-0.15530718318239392	0.7539719801755056	1.2362967406853476	-0.14329176499479376	0.5841079507007495	1.2632245623504461	-0.201031417194838	0.6392814070775965	1.2614287264202877	-0.146408836025105	0.8062591167445454	1.2831912181634932	0.1843930563379033	0.43063981314565264	-0.020181991065105976	0.26565466323683357	0.26121325067657863	-0.24504076773380845	0.25077891105012806	0.29426558682505183	-0.08338621933195883	0.3250575662472577	0.47506161880550135	0.03029122539814478	0.35572281203457534	0.411825162713016	0.27446111677988916	0.3733568773580298	0.26902065186630236	0.12148474440182012	0.37140152328710885	0.19954118123300618	0.032221539488306306	0.3845535605578957	0.150191195171792	0.03611584850627518	0.4020473683879582	0.1879426260216674	0.09843947066250011	0.04686806557769212	0.38333386914484924	0.020617194199087426	-0.04466449095277067	0.4437978270043655	0.27638058490016504	0.0008854125224356469	0.3712714852317459	0.5116838077338223	0.06350374661288694	0.35691350274900857	0.600573804235725	0.04333013589180142	0.33731921091544204	0.6495614267977612	-0.021504582348300577	0.39088687516579307	0.6484212735994113
341	5.683333333333334	0.19344769455122207	0.5053941566502187	0.4579481728828635	0.11377776852740054	0.596423271775916	0.879384831768508	0.03499338737500921	0.7260509393610246	1.2532381781776833	0.005525070587476777	0.6010821805498197	1.304084910222843	0.06790255102151428	0.6031554098087737	1.3145727191958754	0.00026082611868880827	0.8583005588952617	1.3182131470082683	0.005956082172151333	0.5209025336353416	0.4392664527358154	-0.08439641614198139	0.6664955410856503	0.8640754256764704	-0.15490571990523563	0.7539876499242569	1.2369691956654854	-0.14374195912570648	0.5839972041792177	1.2630919351472747	-0.20107694569459642	0.6395950199204411	1.2616165796374843	-0.14606557325917788	0.806176025512584	1.2833582746906604	0.18604138684041435	0.4308799321748187	-0.020061898024152553	0.2658780075098459	0.26138733984038376	-0.2449499564930031	0.24955082883353732	0.2927109327362766	-0.08360153564799552	0.3260260263295188	0.4738591065280323	0.03141157768880652	0.35205374327359706	0.4174211469260271	0.2793441380787585	0.36168892383075735	0.24736848197948744	0.12420920936934836	0.3614316484674451	0.19728976093991163	0.03592799356068094	0.37319705002175113	0.1536291305596347	0.039253593718927816	0.3861683040944131	0.17094873383443512	0.10214652038589717	0.047055083373773496	0.38428894527506696	0.020211255885104886	-0.04932325877277216	0.456548234044264	0.27465423460652527	-0.0024958611281075704	0.37468978953142246	0.511452087854881	0.05723055538713124	0.3588535002298797	0.5986235860287359	0.034784227703157616	0.348917917499032	0.6487827742466091	-0.023293506811120305	0.3945429471515502	0.6493214179441735
342	5.7	0.19365440916958557	0.5063267711264479	0.4604422978480578	0.11276807069705197	0.5920170586528003	0.8791678869760106	0.03490766280124962	0.7263087180897816	1.2533096941870983	0.0053228489608907244	0.6018070891647632	1.3057439025034316	0.06792317821466777	0.6033455512112722	1.31525851819199	0.00025272454935483383	0.8583764541323309	1.3182745718362199	0.004735313977436961	0.5307021210830887	0.44205657305839174	-0.08244945166234391	0.6683679448226236	0.8633837016299	-0.1543510204472804	0.7554715625149938	1.238479818847226	-0.14490149532608992	0.5834624453259288	1.262639908438232	-0.20113333615568313	0.639856004765168	1.2617974578892532	-0.14597718914238852	0.80612506125204	1.283467922579061	0.1873830776850374	0.4321349374743557	-0.01991833613453121	0.26592551894708005	0.2616551554592119	-0.2446155600177539	0.24754334340285644	0.28927775602083744	-0.08370185851772813	0.3272998599833701	0.474502922058901	0.032922059480528953	0.34836274044165727	0.4240607128841555	0.2836896984798204	0.35159247964110896	0.22938442856300292	0.1307402278065875	0.35248230780076395	0.19455843889121138	0.04392651480096184	0.36201758782439264	0.15587259526594113	0.046331541829602786	0.36991230330212443	0.155431226187683	0.10583301295852397	0.04785116193069017	0.38686804966154764	0.019160038969186815	-0.053273413462905574	0.46734058024760583	0.2722440989041724	-0.005709329955659288	0.37828447256430464	0.5113864661373854	0.04745076700700169	0.3666080629546473	0.5975237678549559	0.023024013711420436	0.3648264099291146	0.6488598379507792	-0.025503297772143715	0.39787441063538614	0.6499676552252506
343	5.716666666666667	0.19331068379165314	0.5071285053350412	0.4635333162080043	0.11170849461713961	0.5898591633489136	0.8806445099386085	0.034899758790156006	0.7265041626118798	1.2533755303257859	0.004790433277406697	0.6027448718503823	1.3084534738096372	0.06775336822916671	0.6037951600348245	1.3175652561011666	0.00017667982965735243	0.8584213600262977	1.3183028688028453	0.004037073338348095	0.5370008271574948	0.4460224379630992	-0.08122418282572089	0.669995453149701	0.8636063598544913	-0.15387372739623983	0.7592527552457984	1.240093283616204	-0.14648907717733597	0.582657054835614	1.2620547387539511	-0.20115756185078357	0.6399793348123155	1.261836155078314	-0.1460859341561846	0.8066331987569151	1.2834572103849229	0.1887305544156635	0.43585640134882875	-0.01948466543379159	0.265493939621324	0.2617683587473763	-0.24391516365014215	0.24553592159634263	0.2849851261203101	-0.08371673880782758	0.32953266878255477	0.475728306620487	0.034647730786249144	0.34563023089930933	0.4319584553991074	0.2876582138988495	0.3443825997671728	0.22071554813728708	0.1423108496500655	0.34572948530091635	0.19276710001328318	0.055334698907585855	0.35149988956389844	0.15532698405095827	0.057892407426330256	0.3548769168804407	0.14454829587077284	0.11382245107457249	0.049304577912919964	0.39052799948089906	0.017815193482164596	-0.05571120563073783	0.4764991390588188	0.26926000511887394	-0.008937274785287856	0.38316695715557453	0.5112361117807344	0.03456986302744035	0.37728576289376864	0.5972895128265536	0.009658342721847365	0.38059529659827923	0.6495950631266559	-0.028775915668801673	0.4018788216593803	0.6499138708287858
